<?xml version="1.0" standalone="no"?><!DOCTYPE svg PUBLIC "-//W3C//DTD SVG 1.1//EN" "http://www.w3.org/Graphics/SVG/1.1/DTD/svg11.dtd"><svg t="1667377292458" class="icon" viewBox="0 0 1024 1024" version="1.1" xmlns="http://www.w3.org/2000/svg" p-id="2481" xmlns:xlink="http://www.w3.org/1999/xlink" width="200" height="200"><path d="M180.71552 451.91168a338.944 288.84992 90 1 0 577.69984 0 338.944 288.84992 90 1 0-577.69984 0Z" fill="#FFB39D" p-id="2482"></path><path d="M407.79776 451.91168c0-146.51392 58.08128-271.31904 176.37376-318.62784-33.15712-13.12768-71.29088-20.29568-114.62656-20.29568-194.06848 0-288.84992 151.7568-288.84992 338.944s129.3312 338.944 288.84992 338.944c40.30464 0 78.68416-9.70752 113.54112-27.19744-103.05536-51.79392-175.28832-171.88864-175.28832-311.76704z" fill="#FF8F71" p-id="2483"></path><path d="M469.56544 801.4848c-165.15072 0-299.49952-156.81536-299.49952-349.57312 0-99.2256 25.55904-184.38144 73.91232-246.21056 52.87936-67.62496 130.8672-103.36256 225.5872-103.36256 72.00768 0 133.12 19.16928 181.6576 57.01632a10.62912 10.62912 0 0 1 1.8432 14.92992 10.62912 10.62912 0 0 1-14.92992 1.8432c-44.70784-34.85696-101.43744-52.51072-168.57088-52.51072-205.12768 0-278.2208 169.59488-278.2208 328.2944 0 181.02272 124.80512 328.2944 278.2208 328.2944s278.2208-147.27168 278.2208-328.2944c0-48.72192-6.12352-93.9008-18.2272-134.30784-1.67936-5.632 1.51552-11.55072 7.14752-13.25056 5.632-1.67936 11.55072 1.51552 13.25056 7.14752 12.67712 42.37312 19.10784 89.62048 19.10784 140.41088 0 192.75776-134.3488 349.57312-299.49952 349.57312z" p-id="2484"></path><path d="M501.18656 900.93568c-67.93216-18.16576-299.008-264.47872-299.008-338.1248 0-87.92064 71.2704-159.19104 159.19104-159.19104 62.13632 0 115.93728 35.59424 142.17216 87.49056l-2.3552 409.82528z" fill="#FF8F71" p-id="2485"></path><path d="M320.16384 727.2448c-0.9216 0-1.8432-0.12288-2.7648-0.36864-74.09664-19.80416-125.87008-87.28576-125.87008-164.08576 0-93.63456 76.1856-169.82016 169.82016-169.82016 64.47104 0 122.5728 35.75808 151.67488 93.34784 2.64192 5.24288 0.55296 11.65312-4.68992 14.29504s-11.65312 0.55296-14.29504-4.68992c-25.45664-50.36032-76.288-81.65376-132.66944-81.65376-81.89952 0-148.54144 66.64192-148.54144 148.54144 0 67.1744 45.2608 126.19776 110.08 143.52384 5.67296 1.51552 9.05216 7.35232 7.53664 13.02528a10.676224 10.676224 0 0 1-10.28096 7.8848z" p-id="2486"></path><path d="M201.95328 785.73568a101.634048 101.634048 0 0 0-2.62144 30.5152c3.15392 49.60256 42.94656 90.19392 92.4672 94.28992 36.92544 3.05152 70.12352-13.76256 90.112-40.89856 0.512-0.69632 1.49504-0.69632 2.00704-0.02048 18.10432 23.73632 46.65344 39.07584 78.80704 39.07584 30.86336 0 58.40896-14.1312 76.57472-36.27008 0.512-0.63488 1.45408-0.6144 1.96608 0.02048 21.03296 26.56256 55.07072 42.33216 92.50816 37.64224 45.85472-5.75488 82.45248-42.98752 87.51104-88.90368 6.73792-61.09184-40.89856-112.78336-100.61824-112.78336h-320.3072c-26.37824 0-50.40128 10.07616-68.42368 26.60352" fill="#D4D4FF" p-id="2487"></path><path d="M497.29536 708.38272h-196.9152c-26.37824 0-50.40128 10.07616-68.42368 26.60352l-30.0032 50.74944a101.634048 101.634048 0 0 0-2.62144 30.5152c3.15392 49.60256 42.94656 90.19392 92.4672 94.28992 36.92544 3.05152 70.12352-13.76256 90.112-40.89856 0.512-0.69632 1.49504-0.69632 2.00704-0.02048 18.10432 23.73632 46.65344 39.07584 78.80704 39.07584 5.79584 0 11.48928-0.49152 17.01888-1.45408-11.34592-25.55904-17.65376-53.84192-17.65376-83.59936 0.02048-42.7008 13.0048-82.35008 35.20512-115.26144z" fill="#D4D4FF" p-id="2488"></path><path d="M539.32032 872.42752c0.512-0.63488 1.45408-0.6144 1.96608 0.02048 21.03296 26.56256 55.07072 42.33216 92.50816 37.64224 45.85472-5.75488 82.45248-42.98752 87.51104-88.90368 6.73792-61.09184-40.89856-112.78336-100.61824-112.78336h-123.392c-22.20032 32.91136-35.18464 72.56064-35.18464 115.26144 0 29.75744 6.30784 58.04032 17.65376 83.59936 23.87968-4.17792 44.81024-16.87552 59.55584-34.83648z" fill="#EFEDFF" p-id="2489"></path><path d="M300.38016 921.53856c-3.13344 0-6.28736-0.12288-9.46176-0.38912-54.784-4.5056-98.7136-49.31584-102.21568-104.20224-0.7168-11.40736 0.24576-22.7328 2.90816-33.6896a10.6496 10.6496 0 0 1 12.84096-7.84384c5.71392 1.37216 9.216 7.12704 7.84384 12.84096a91.947008 91.947008 0 0 0-2.3552 27.3408c2.82624 44.4416 38.37952 80.71168 82.71872 84.35712 31.744 2.60096 61.87008-11.07968 80.6912-36.61824a12.029952 12.029952 0 0 1 9.48224-4.85376h0.1024c3.6864 0 7.20896 1.7408 9.46176 4.68992 16.896 22.17984 42.53696 34.87744 70.3488 34.87744 26.54208 0 51.46624-11.79648 68.36224-32.37888a11.855872 11.855872 0 0 1 9.19552-4.36224h0.1024c3.60448 0.04096 6.9632 1.67936 9.216 4.5056 19.88608 25.10848 50.87232 37.70368 82.86208 33.6896 40.81664-5.12 73.74848-38.56384 78.27456-79.52384 2.88768-26.2144-5.09952-51.34336-22.528-70.79936a90.755072 90.755072 0 0 0-67.52256-30.18752h-320.3072c-22.7328 0-44.48256 8.45824-61.2352 23.81824a10.62912 10.62912 0 0 1-15.03232-0.65536 10.62912 10.62912 0 0 1 0.65536-15.03232 111.607808 111.607808 0 0 1 75.61216-29.40928h320.3072c31.76448 0 62.1568 13.57824 83.37408 37.2736 21.1968 23.6544 31.3344 55.5008 27.81184 87.32672-5.59104 50.62656-46.2848 91.9552-96.768 98.304-35.75808 4.48512-70.49216-7.86432-94.96576-33.32096-20.48 20.45952-48.14848 32.01024-77.4144 32.01024-30.57664 0-59.02336-12.36992-79.68768-34.32448-21.21728 23.36768-50.97472 36.5568-82.67776 36.5568z m90.112-45.58848zM668.40576 445.56288c-2.1504 0-4.34176-0.65536-6.22592-2.00704-60.06784-43.39712-232.09984-15.7696-233.82016-15.48288a10.62912 10.62912 0 0 1-12.22656-8.76544 10.651648 10.651648 0 0 1 8.76544-12.22656c7.41376-1.2288 182.51776-29.32736 249.73312 19.21024a10.625024 10.625024 0 0 1 2.39616 14.848 10.584064 10.584064 0 0 1-8.62208 4.42368z" p-id="2490"></path><path d="M668.40576 445.41952c-2.1504 0-4.34176-0.65536-6.22592-2.00704-59.43296-42.92608-229.70368-15.58528-231.424-15.29856-5.81632 0.96256-11.264-2.9696-12.22656-8.76544a10.651648 10.651648 0 0 1 8.76544-12.22656c7.35232-1.20832 180.75648-29.04064 247.33696 19.0464a10.625024 10.625024 0 0 1 2.39616 14.848 10.563584 10.563584 0 0 1-8.62208 4.4032z" p-id="2491"></path><path d="M668.40576 443.16672c-2.1504 0-4.34176-0.65536-6.22592-2.00704-59.43296-42.92608-229.70368-15.58528-231.424-15.29856-5.81632 0.96256-11.264-2.99008-12.22656-8.76544a10.651648 10.651648 0 0 1 8.76544-12.22656c7.35232-1.20832 180.75648-29.04064 247.33696 19.0464a10.625024 10.625024 0 0 1 2.39616 14.848 10.563584 10.563584 0 0 1-8.62208 4.4032z" p-id="2492"></path><path d="M668.40576 440.50432c-2.1504 0-4.34176-0.65536-6.22592-2.00704-59.43296-42.92608-229.70368-15.58528-231.424-15.29856-5.81632 0.96256-11.264-2.9696-12.22656-8.76544a10.651648 10.651648 0 0 1 8.76544-12.22656c7.35232-1.20832 180.75648-29.04064 247.33696 19.0464a10.625024 10.625024 0 0 1 2.39616 14.848 10.563584 10.563584 0 0 1-8.62208 4.4032z" p-id="2493"></path><path d="M668.40576 437.8624c-2.1504 0-4.34176-0.65536-6.22592-2.00704-59.43296-42.92608-229.70368-15.58528-231.424-15.29856-5.81632 0.96256-11.264-2.9696-12.22656-8.76544a10.651648 10.651648 0 0 1 8.76544-12.22656c7.35232-1.20832 180.75648-29.04064 247.33696 19.0464a10.625024 10.625024 0 0 1 2.39616 14.848 10.61888 10.61888 0 0 1-8.62208 4.4032z" p-id="2494"></path><path d="M331.83744 609.83296a38.912 30.24896 0 1 0 77.824 0 38.912 30.24896 0 1 0-77.824 0Z" fill="#FFB5C0" p-id="2495"></path><path d="M384 590.90944c-5.87776 0-10.62912-4.77184-10.62912-10.62912v-20.60288c0-5.87776 4.77184-10.62912 10.62912-10.62912s10.62912 4.77184 10.62912 10.62912v20.60288c0.02048 5.85728-4.75136 10.62912-10.62912 10.62912z" p-id="2496"></path><path d="M529.48992 609.83296a38.912 30.24896 0 1 0 77.824 0 38.912 30.24896 0 1 0-77.824 0Z" fill="#FFDBE0" p-id="2497"></path><path d="M555.2128 590.90944c-5.87776 0-10.62912-4.77184-10.62912-10.62912v-20.60288c0-5.87776 4.77184-10.62912 10.62912-10.62912 5.87776 0 10.62912 4.77184 10.62912 10.62912v20.60288c0 5.85728-4.75136 10.62912-10.62912 10.62912zM470.79424 596.41856c-14.86848 0-26.66496-7.00416-32.54272-12.9024-4.13696-4.15744-4.11648-10.89536 0.04096-15.0528a10.637312 10.637312 0 0 1 14.97088-0.02048c1.69984 1.61792 16.5888 14.78656 38.01088-1.00352a10.631168 10.631168 0 1 1 12.61568 17.12128c-11.83744 8.72448-23.1424 11.85792-33.09568 11.85792z" p-id="2498"></path></svg>